<svg xmlns="http://www.w3.org/2000/svg" width="58" height="58" viewBox="0 0 58 58" fill="none">
  <path d="M29 57.5C44.7401 57.5 57.5 44.7401 57.5 29C57.5 13.2599 44.7401 0.5 29 0.5C13.2599 0.5 0.5 13.2599 0.5 29C0.5 44.7401 13.2599 57.5 29 57.5Z" fill="white" fill-opacity="0.1" stroke="#50D955"/>
  <mask id="mask0_16541_12618" style="mask-type:luminance" maskUnits="userSpaceOnUse" x="20" y="21" width="18" height="17">
    <path fill-rule="evenodd" clip-rule="evenodd" d="M38 21H19.9988V37.5011H38V21Z" fill="white"/>
  </mask>
  <g mask="url(#mask0_16541_12618)">
    <path fill-rule="evenodd" clip-rule="evenodd" d="M19.9988 29.2483C20.0099 28.9529 20.127 28.6119 20.3232 28.3981L26.7245 21.384C27.1566 20.9826 27.9906 20.8161 28.4732 21.2812C28.9511 21.7382 28.9369 22.6259 28.4621 23.0861L23.9615 28.0113H36.7989C37.4619 28.0113 38 28.5662 38 29.2483C38 29.9321 37.4619 30.4853 36.7989 30.4853H23.9615L28.4621 35.4105C28.8704 35.8332 28.9464 36.7536 28.4732 37.2154C28.0016 37.6789 27.1407 37.5304 26.7245 37.1126L20.3232 30.0986C20.1049 29.8603 19.9988 29.578 19.9988 29.2483" fill="#50D955"/>
  </g>
</svg>