<svg width="100" height="100" viewBox="0 0 100 100" fill="none" xmlns="http://www.w3.org/2000/svg">
<rect width="100" height="100" rx="16" fill="#001509"/>
<g opacity="0.3">
<path d="M37.2268 66.4234C36.2231 66.4234 35.3563 66.0736 34.6264 65.3741C33.9269 64.6442 33.5771 63.7774 33.5771 62.7737V37.2263C33.5771 36.2226 33.9269 35.3711 34.6264 34.6716C35.3563 33.9416 36.2231 33.5767 37.2268 33.5767H62.7742C63.7779 33.5767 64.6295 33.9416 65.329 34.6716C66.0589 35.3711 66.4239 36.2226 66.4239 37.2263V62.7737C66.4239 63.7774 66.0589 64.6442 65.329 65.3741C64.6295 66.0736 63.7779 66.4234 62.7742 66.4234H37.2268ZM37.2268 62.7737H62.7742V37.2263H37.2268V62.7737ZM39.0516 59.1241H60.9494L54.1063 50L48.6319 57.2993L44.5261 51.8248L39.0516 59.1241ZM37.2268 62.7737V37.2263V62.7737Z" fill="white"/>
</g>
</svg>
