<svg xmlns="http://www.w3.org/2000/svg" width="32" height="32" viewBox="0 0 32 32" fill="none">
<path d="M28 14.4375V26C27.9991 26.3609 27.9012 26.715 27.7165 27.025C27.5317 27.3351 27.267 27.5898 26.95 27.7625C26.6593 27.9227 26.3319 28.0046 26 28H20C19.7348 28 19.4805 27.8946 19.2929 27.7071C19.1054 27.5195 19 27.2652 19 27V21C19 20.7347 18.8947 20.4804 18.7071 20.2928C18.5196 20.1053 18.2652 20 18 20H14C13.7348 20 13.4805 20.1053 13.2929 20.2928C13.1054 20.4804 13 20.7347 13 21V27C13 27.2652 12.8947 27.5195 12.7071 27.7071C12.5196 27.8946 12.2652 28 12 28H6.00002C5.71631 28.001 5.43565 27.9413 5.17692 27.8249C4.91819 27.7085 4.68738 27.538 4.50002 27.325C4.17489 26.9408 3.99759 26.4532 4.00002 25.95V14.4375C4.00011 14.16 4.05795 13.8855 4.16985 13.6316C4.28176 13.3776 4.44528 13.1498 4.65002 12.9625L14.65 3.87495C15.0187 3.53765 15.5003 3.35059 16 3.35059C16.4997 3.35059 16.9813 3.53765 17.35 3.87495L27.35 12.9625C27.5548 13.1498 27.7183 13.3776 27.8302 13.6316C27.9421 13.8855 27.9999 14.16 28 14.4375Z" fill="white"/>
</svg>