<svg width="808" height="700" viewBox="0 0 808 700" fill="none" xmlns="http://www.w3.org/2000/svg">
<g clip-path="url(#clip0_1162_1298)">
<path d="M-32 230.297C-8.74722 226.258 29.1341 221.564 75.3122 224.621C260.789 237.066 302.927 359.334 448.558 369.705C568.206 378.111 683.269 305.951 748.115 224.075C803.135 154.644 819.729 81.1738 825.624 41" stroke="url(#paint0_linear_1162_1298)" stroke-width="0.5" stroke-miterlimit="10"/>
<path d="M-31.5625 243.07C-7.10887 239.795 32.7375 235.21 80.553 237.612C265.156 247 306.968 365.12 451.288 375.382C571.154 384.006 685.016 319.706 750.408 239.249C805.319 171.783 821.804 98.9684 827.917 59.1221" stroke="url(#paint1_linear_1162_1298)" stroke-width="0.5" stroke-miterlimit="10"/>
<path d="M-31.127 255.734C-5.3633 253.114 36.2297 248.747 85.792 250.494C269.522 257.044 311.115 370.906 454.016 381.059C574.21 389.792 686.762 333.461 752.699 254.424C807.502 188.814 823.877 116.654 830.209 77.2441" stroke="url(#paint2_linear_1162_1298)" stroke-width="0.5" stroke-miterlimit="10"/>
<path d="M-30.6895 268.506C-3.61579 266.541 39.8331 260.21 90.9237 263.594C273.343 275.384 315.046 376.801 456.527 386.954C577.158 395.796 688.4 347.435 754.883 269.816C809.577 206.062 825.952 134.666 832.502 95.6934" stroke="url(#paint3_linear_1162_1298)" stroke-width="0.5" stroke-miterlimit="10"/>
<path d="M-30.2539 281.278C-1.97939 279.968 43.3253 273.309 96.1626 276.584C277.6 287.719 318.975 382.477 459.255 392.739C580.104 401.691 689.927 361.408 757.175 285.099C811.65 223.201 828.025 152.569 834.903 113.924" stroke="url(#paint4_linear_1162_1298)" stroke-width="0.5" stroke-miterlimit="10"/>
<path d="M-29.8164 293.942C-0.231876 293.287 46.8195 286.191 101.294 289.466C281.858 300.056 323.015 388.263 461.876 398.416C583.053 407.477 691.566 375.163 759.359 300.383C813.725 240.341 829.991 170.473 837.087 132.155" stroke="url(#paint5_linear_1162_1298)" stroke-width="0.5" stroke-miterlimit="10"/>
<path d="M-29.3799 306.715C1.51466 306.715 50.3128 299.401 106.534 302.458C286.116 312.283 327.054 394.05 464.605 404.202C586.109 413.372 693.203 389.028 761.651 315.667C815.799 257.59 832.065 188.377 839.488 150.387" stroke="url(#paint6_linear_1162_1298)" stroke-width="0.5" stroke-miterlimit="10"/>
<path d="M-28.9434 319.487C3.2612 320.142 53.6968 312.501 111.665 315.448C290.373 324.4 330.984 399.835 467.225 409.988C589.057 419.376 694.731 403.001 763.835 330.95C817.764 274.729 834.139 206.171 841.781 168.617" stroke="url(#paint7_linear_1162_1298)" stroke-width="0.5" stroke-miterlimit="10"/>
<path d="M-28.5068 332.151C4.89857 333.461 57.0809 330.95 116.905 328.33C294.74 320.361 335.023 405.512 469.954 415.665C592.004 425.162 696.369 416.865 766.127 346.125C819.838 291.759 836.213 223.966 844.073 186.739" stroke="url(#paint8_linear_1162_1298)" stroke-width="0.5" stroke-miterlimit="10"/>
<path d="M-28.1787 344.924C6.53671 346.889 60.4657 344.815 121.927 341.322C298.67 331.387 338.844 411.298 472.466 421.451C594.843 431.058 697.679 430.73 768.202 361.408C821.694 308.789 838.069 241.869 846.257 204.971" stroke="url(#paint9_linear_1162_1298)" stroke-width="0.5" stroke-miterlimit="10"/>
<path d="M-27.7422 357.696C8.28325 360.316 63.9589 358.57 127.167 354.312C302.928 342.413 342.883 417.084 475.195 427.236C597.9 436.952 699.317 444.703 770.603 376.691C823.768 325.928 840.362 259.772 848.768 223.201" stroke="url(#paint10_linear_1162_1298)" stroke-width="0.5" stroke-miterlimit="10"/>
<path d="M-27.3057 370.36C10.0298 373.635 67.4522 372.325 132.298 367.194C306.967 353.439 346.813 422.76 477.815 432.804C600.847 442.629 700.736 458.349 772.787 391.757C825.733 342.849 842.327 277.349 850.951 241.323" stroke="url(#paint11_linear_1162_1298)" stroke-width="0.5" stroke-miterlimit="10"/>
<path d="M-26.8691 383.133C11.6672 387.063 70.8362 386.19 137.538 380.185C311.115 364.683 350.852 428.656 480.544 438.59C603.904 448.525 702.264 472.323 775.079 407.041C827.698 359.989 844.401 295.253 853.352 259.555" stroke="url(#paint12_linear_1162_1298)" stroke-width="0.5" stroke-miterlimit="10"/>
<path d="M-26.4326 395.905C13.4137 400.49 74.3295 400.053 142.778 393.176C315.372 375.927 354.891 434.441 483.273 444.376C606.96 454.419 703.792 486.187 777.371 422.324C829.554 377.019 846.584 313.156 855.754 277.785" stroke="url(#paint13_linear_1162_1298)" stroke-width="0.5" stroke-miterlimit="10"/>
<path d="M-25.9961 408.569C15.1602 413.809 77.8227 413.809 147.909 406.058C319.411 387.172 358.93 440.118 485.893 450.052C609.908 460.314 705.102 500.051 779.555 437.498C831.409 393.94 848.549 330.95 857.937 295.907" stroke="url(#paint14_linear_1162_1298)" stroke-width="0.5" stroke-miterlimit="10"/>
<path d="M-25.5586 421.341C16.7986 427.236 81.2077 427.673 153.149 419.048C323.67 398.525 362.97 445.685 488.623 455.838C612.965 465.991 706.631 513.915 781.848 452.89C833.375 411.188 850.624 348.962 860.34 314.247" stroke="url(#paint15_linear_1162_1298)" stroke-width="0.5" stroke-miterlimit="10"/>
<path d="M-25.123 434.114C18.5442 440.664 84.7 441.647 158.279 432.04C327.817 409.988 366.899 451.472 491.242 461.624C615.802 471.886 707.94 527.78 784.139 468.174C835.23 428.219 852.806 366.757 862.74 332.479" stroke="url(#paint16_linear_1162_1298)" stroke-width="0.5" stroke-miterlimit="10"/>
<path d="M-24.6855 446.778C20.2917 453.983 88.1942 455.511 163.52 444.922C331.966 421.341 370.939 457.149 493.972 467.301C618.86 477.672 709.36 541.535 786.433 483.349C837.087 445.14 854.881 384.552 865.034 350.601" stroke="url(#paint17_linear_1162_1298)" stroke-width="0.5" stroke-miterlimit="10"/>
<path d="M-24.3584 459.55C21.9288 467.41 91.4689 469.484 168.541 457.912C336.005 432.913 374.76 462.934 496.482 473.086C621.698 483.567 710.451 555.399 788.507 498.632C838.724 462.061 856.737 402.455 867.217 368.831" stroke="url(#paint18_linear_1162_1298)" stroke-width="0.5" stroke-miterlimit="10"/>
<path d="M-23.9209 472.323C23.5672 480.838 94.9631 483.458 173.782 470.904C340.264 444.485 378.8 468.72 499.212 478.873C624.755 489.462 711.762 569.264 790.8 513.916C840.471 479.091 858.812 420.359 869.51 387.172" stroke="url(#paint19_linear_1162_1298)" stroke-width="0.5" stroke-miterlimit="10"/>
<path d="M-23.4854 484.987C25.3127 494.157 98.4553 497.323 178.912 483.786C344.411 456.057 382.838 474.397 501.831 484.55C627.702 495.248 712.962 583.019 792.982 529.09C842.217 495.903 860.885 438.154 871.801 405.294" stroke="url(#paint20_linear_1162_1298)" stroke-width="0.5" stroke-miterlimit="10"/>
<path d="M-23.0479 497.758C27.0603 507.693 101.95 511.404 184.153 496.776C348.56 467.628 386.769 480.182 504.561 490.226C630.759 501.033 714.273 596.665 795.275 544.264C843.964 512.824 862.96 455.838 874.204 423.415" stroke="url(#paint21_linear_1162_1298)" stroke-width="0.5" stroke-miterlimit="10"/>
<path d="M-22.6123 510.532C28.8058 521.121 105.442 525.488 189.283 509.767C352.707 479.309 390.698 485.969 507.18 496.012C633.706 506.929 715.473 610.42 797.567 559.548C845.71 529.745 865.033 473.742 876.495 441.646" stroke="url(#paint22_linear_1162_1298)" stroke-width="0.5" stroke-miterlimit="10"/>
<path d="M-22.1748 523.195C30.4442 534.439 108.936 539.461 194.524 522.649C356.966 490.881 394.847 491.646 509.91 501.689C636.654 512.715 716.674 624.066 799.86 574.722C847.458 546.448 867.217 491.536 878.898 459.769" stroke="url(#paint23_linear_1162_1298)" stroke-width="0.5" stroke-miterlimit="10"/>
<path d="M-21.7373 535.967C32.1917 547.867 112.43 553.544 199.765 535.749C361.333 502.78 398.887 497.54 512.64 507.584C639.712 518.828 717.876 637.821 802.154 590.115C849.205 563.478 869.292 509.549 881.3 478.108" stroke="url(#paint24_linear_1162_1298)" stroke-width="0.5" stroke-miterlimit="10"/>
<path d="M-21.3018 548.74C33.9373 561.295 115.922 567.627 204.894 548.74C365.48 514.571 402.816 503.436 515.259 513.37C642.549 524.614 718.966 651.468 804.227 605.399C850.732 580.29 871.147 527.453 883.374 496.34" stroke="url(#paint25_linear_1162_1298)" stroke-width="0.5" stroke-miterlimit="10"/>
<path d="M-20.8643 561.404C35.6848 574.613 119.417 581.709 210.135 561.622C369.739 526.252 406.856 509.112 517.989 519.047C645.716 530.509 720.168 665.004 806.629 620.682C852.48 597.102 873.44 545.247 885.885 514.571" stroke="url(#paint26_linear_1162_1298)" stroke-width="0.5" stroke-miterlimit="10"/>
<path d="M-20.5371 574.176C37.2128 588.041 122.8 595.901 215.157 574.613C373.887 538.042 410.677 514.898 520.39 524.833C648.444 536.404 720.932 678.541 808.594 635.966C853.899 613.914 875.186 563.151 887.959 532.911" stroke="url(#paint27_linear_1162_1298)" stroke-width="0.5" stroke-miterlimit="10"/>
<path d="M-20.1006 586.84C38.9593 601.359 126.294 609.984 220.397 587.495C378.144 549.723 414.716 520.575 523.119 530.509C651.501 542.19 722.023 691.969 810.995 651.14C855.645 630.617 877.37 580.945 890.361 551.033" stroke="url(#paint28_linear_1162_1298)" stroke-width="0.5" stroke-miterlimit="10"/>
<path d="M-19.6641 599.613C40.7058 614.787 129.896 624.175 225.527 600.486C382.402 561.622 418.645 526.361 525.739 536.295C654.448 548.195 723.115 705.397 813.179 666.424C857.173 647.319 879.444 598.849 892.653 569.264" stroke="url(#paint29_linear_1162_1298)" stroke-width="0.5" stroke-miterlimit="10"/>
<path d="M-19.2275 612.385C42.3432 628.214 133.389 638.367 230.767 613.477C386.768 573.521 422.685 532.365 528.468 542.081C657.396 554.308 724.097 718.824 815.471 681.707C858.811 664.131 881.518 616.643 895.055 587.495" stroke="url(#paint30_linear_1162_1298)" stroke-width="0.5" stroke-miterlimit="10"/>
<path d="M-18.791 625.049C44.0898 641.534 136.992 652.56 235.898 626.359C391.026 585.312 426.614 538.042 531.088 547.758C660.343 560.094 725.08 731.925 817.654 696.882C860.448 680.725 883.483 634.438 897.238 605.617" stroke="url(#paint31_linear_1162_1298)" stroke-width="0.5" stroke-miterlimit="10"/>
<path d="M-18.3535 637.821C45.8373 654.961 140.486 666.86 241.139 639.35C395.393 597.211 430.654 543.828 533.818 553.435C663.401 565.989 726.172 745.134 819.948 712.165C862.086 697.318 885.558 652.341 899.64 623.848" stroke="url(#paint32_linear_1162_1298)" stroke-width="0.5" stroke-miterlimit="10"/>
<path d="M-17.917 650.594C47.5838 668.388 144.088 681.161 246.379 652.341C399.76 609.11 434.694 549.723 536.547 559.22C666.457 571.884 727.155 758.234 822.24 727.339C863.724 713.911 887.741 670.135 902.042 641.97" stroke="url(#paint33_linear_1162_1298)" stroke-width="0.5" stroke-miterlimit="10"/>
<path d="M-17.4805 663.258C49.2212 681.707 147.691 695.353 251.51 665.223C404.017 621.01 438.623 555.4 539.167 564.897C669.405 577.67 728.137 771.116 824.423 742.514C865.252 730.396 889.706 687.93 904.225 660.092" stroke="url(#paint34_linear_1162_1298)" stroke-width="0.5" stroke-miterlimit="10"/>
<path d="M-17.0439 676.03C50.9677 695.134 151.293 709.654 256.749 678.213C408.493 632.909 442.663 561.185 541.896 570.683C672.352 583.565 729.119 784.106 826.825 757.797C867.108 746.989 891.889 705.724 906.736 678.432" stroke="url(#paint35_linear_1162_1298)" stroke-width="0.5" stroke-miterlimit="10"/>
<path d="M-16.7168 688.803C52.6049 708.563 154.786 724.064 261.771 691.205C412.641 644.918 446.483 566.972 544.407 576.469C675.19 589.46 729.992 796.989 828.899 773.19C868.527 763.692 893.854 723.737 908.919 696.772" stroke="url(#paint36_linear_1162_1298)" stroke-width="0.5" stroke-miterlimit="10"/>
<path d="M-16.2793 701.467C54.3524 721.881 158.39 738.365 267.012 704.087C417.118 656.817 450.632 572.648 547.137 582.146C678.248 595.246 731.085 809.543 831.192 788.364C870.274 780.068 895.929 741.531 911.212 714.894" stroke="url(#paint37_linear_1162_1298)" stroke-width="0.5" stroke-miterlimit="10"/>
<path d="M-15.8438 714.239C55.9888 735.309 161.991 752.776 272.141 717.078C421.483 668.716 454.561 578.434 549.756 587.932C681.194 601.25 732.066 822.206 833.374 803.648C871.91 796.552 897.892 759.435 913.503 733.125" stroke="url(#paint38_linear_1162_1298)" stroke-width="0.5" stroke-miterlimit="10"/>
<path d="M-15.4062 727.012C57.7363 748.736 165.703 767.186 277.382 730.069C425.96 680.725 458.601 584.22 552.486 593.718C684.252 607.145 733.159 834.761 835.667 818.931C873.549 813.036 900.077 777.338 915.906 751.356" stroke="url(#paint39_linear_1162_1298)" stroke-width="0.5" stroke-miterlimit="10"/>
<path d="M-14.9707 739.675C59.4819 762.055 169.305 781.596 282.512 742.95C430.326 692.624 462.53 590.006 555.105 599.394C687.198 612.931 734.14 847.097 837.85 834.106C875.294 829.411 902.041 795.023 918.088 769.478" stroke="url(#paint40_linear_1162_1298)" stroke-width="0.5" stroke-miterlimit="10"/>
<path d="M-14.5332 752.447C61.1202 775.591 173.017 796.005 287.753 755.941C434.802 704.632 466.57 595.682 557.835 605.18C690.255 618.826 735.342 859.432 840.252 849.389C877.151 845.895 904.225 812.926 920.6 787.709" stroke="url(#paint41_linear_1162_1298)" stroke-width="0.5" stroke-miterlimit="10"/>
</g>
<defs>
<linearGradient id="paint0_linear_1162_1298" x1="-32" y1="205.832" x2="825.845" y2="205.832" gradientUnits="userSpaceOnUse">
<stop stop-color="#50D955"/>
<stop offset="0.5" stop-color="#50D955" stop-opacity="0"/>
<stop offset="1" stop-color="#50D955"/>
</linearGradient>
<linearGradient id="paint1_linear_1162_1298" x1="-31.5652" y1="217.856" x2="828.161" y2="217.856" gradientUnits="userSpaceOnUse">
<stop stop-color="#4FD657"/>
<stop offset="0.5" stop-color="#4FD657" stop-opacity="0"/>
<stop offset="1" stop-color="#4FD657"/>
</linearGradient>
<linearGradient id="paint2_linear_1162_1298" x1="-31.1332" y1="229.892" x2="830.475" y2="229.892" gradientUnits="userSpaceOnUse">
<stop stop-color="#4ED259"/>
<stop offset="0.5" stop-color="#4ED259" stop-opacity="0"/>
<stop offset="1" stop-color="#4ED259"/>
</linearGradient>
<linearGradient id="paint3_linear_1162_1298" x1="-30.7" y1="241.942" x2="832.791" y2="241.942" gradientUnits="userSpaceOnUse">
<stop stop-color="#4DCF5B"/>
<stop offset="0.5" stop-color="#4DCF5B" stop-opacity="0"/>
<stop offset="1" stop-color="#4DCF5B"/>
</linearGradient>
<linearGradient id="paint4_linear_1162_1298" x1="-30.2694" y1="254.015" x2="835.105" y2="254.015" gradientUnits="userSpaceOnUse">
<stop stop-color="#4CCC5D"/>
<stop offset="0.5" stop-color="#4CCC5D" stop-opacity="0"/>
<stop offset="1" stop-color="#4CCC5D"/>
</linearGradient>
<linearGradient id="paint5_linear_1162_1298" x1="-29.8375" y1="266.123" x2="837.421" y2="266.123" gradientUnits="userSpaceOnUse">
<stop stop-color="#4BC85F"/>
<stop offset="0.5" stop-color="#4BC85F" stop-opacity="0"/>
<stop offset="1" stop-color="#4BC85F"/>
</linearGradient>
<linearGradient id="paint6_linear_1162_1298" x1="-29.4071" y1="278.282" x2="839.735" y2="278.282" gradientUnits="userSpaceOnUse">
<stop stop-color="#4AC560"/>
<stop offset="0.5" stop-color="#4AC560" stop-opacity="0"/>
<stop offset="1" stop-color="#4AC560"/>
</linearGradient>
<linearGradient id="paint7_linear_1162_1298" x1="-28.9879" y1="290.524" x2="842.05" y2="290.524" gradientUnits="userSpaceOnUse">
<stop stop-color="#49C262"/>
<stop offset="0.5" stop-color="#49C262" stop-opacity="0"/>
<stop offset="1" stop-color="#49C262"/>
</linearGradient>
<linearGradient id="paint8_linear_1162_1298" x1="-28.5687" y1="302.903" x2="844.365" y2="302.903" gradientUnits="userSpaceOnUse">
<stop stop-color="#48BE64"/>
<stop offset="0.5" stop-color="#48BE64" stop-opacity="0"/>
<stop offset="1" stop-color="#48BE64"/>
</linearGradient>
<linearGradient id="paint9_linear_1162_1298" x1="-28.1484" y1="315.501" x2="846.68" y2="315.501" gradientUnits="userSpaceOnUse">
<stop stop-color="#47BB66"/>
<stop offset="0.5" stop-color="#47BB66" stop-opacity="0"/>
<stop offset="1" stop-color="#47BB66"/>
</linearGradient>
<linearGradient id="paint10_linear_1162_1298" x1="-27.7285" y1="328.417" x2="848.995" y2="328.417" gradientUnits="userSpaceOnUse">
<stop stop-color="#46B868"/>
<stop offset="0.5" stop-color="#46B868" stop-opacity="0"/>
<stop offset="1" stop-color="#46B868"/>
</linearGradient>
<linearGradient id="paint11_linear_1162_1298" x1="-27.3083" y1="341.729" x2="851.31" y2="341.729" gradientUnits="userSpaceOnUse">
<stop stop-color="#46B56A"/>
<stop offset="0.5" stop-color="#46B56A" stop-opacity="0"/>
<stop offset="1" stop-color="#46B56A"/>
</linearGradient>
<linearGradient id="paint12_linear_1162_1298" x1="-26.8878" y1="355.465" x2="853.624" y2="355.465" gradientUnits="userSpaceOnUse">
<stop stop-color="#45B16C"/>
<stop offset="0.5" stop-color="#45B16C" stop-opacity="0"/>
<stop offset="1" stop-color="#45B16C"/>
</linearGradient>
<linearGradient id="paint13_linear_1162_1298" x1="-26.467" y1="369.602" x2="855.939" y2="369.602" gradientUnits="userSpaceOnUse">
<stop stop-color="#44AE6E"/>
<stop offset="0.5" stop-color="#44AE6E" stop-opacity="0"/>
<stop offset="1" stop-color="#44AE6E"/>
</linearGradient>
<linearGradient id="paint14_linear_1162_1298" x1="-26.046" y1="384.096" x2="858.254" y2="384.096" gradientUnits="userSpaceOnUse">
<stop stop-color="#43AB70"/>
<stop offset="0.5" stop-color="#43AB70" stop-opacity="0"/>
<stop offset="1" stop-color="#43AB70"/>
</linearGradient>
<linearGradient id="paint15_linear_1162_1298" x1="-25.6238" y1="398.86" x2="860.569" y2="398.86" gradientUnits="userSpaceOnUse">
<stop stop-color="#42A772"/>
<stop offset="0.5" stop-color="#42A772" stop-opacity="0"/>
<stop offset="1" stop-color="#42A772"/>
</linearGradient>
<linearGradient id="paint16_linear_1162_1298" x1="-25.2034" y1="413.918" x2="862.883" y2="413.918" gradientUnits="userSpaceOnUse">
<stop stop-color="#41A473"/>
<stop offset="0.5" stop-color="#41A473" stop-opacity="0"/>
<stop offset="1" stop-color="#41A473"/>
</linearGradient>
<linearGradient id="paint17_linear_1162_1298" x1="-24.7809" y1="429.19" x2="865.198" y2="429.19" gradientUnits="userSpaceOnUse">
<stop stop-color="#40A175"/>
<stop offset="0.5" stop-color="#40A175" stop-opacity="0"/>
<stop offset="1" stop-color="#40A175"/>
</linearGradient>
<linearGradient id="paint18_linear_1162_1298" x1="-24.3593" y1="444.641" x2="867.512" y2="444.641" gradientUnits="userSpaceOnUse">
<stop stop-color="#3F9D77"/>
<stop offset="0.5" stop-color="#3F9D77" stop-opacity="0"/>
<stop offset="1" stop-color="#3F9D77"/>
</linearGradient>
<linearGradient id="paint19_linear_1162_1298" x1="-23.9364" y1="460.243" x2="869.828" y2="460.243" gradientUnits="userSpaceOnUse">
<stop stop-color="#3E9A79"/>
<stop offset="0.5" stop-color="#3E9A79" stop-opacity="0"/>
<stop offset="1" stop-color="#3E9A79"/>
</linearGradient>
<linearGradient id="paint20_linear_1162_1298" x1="-23.5153" y1="475.972" x2="872.141" y2="475.972" gradientUnits="userSpaceOnUse">
<stop stop-color="#3D977B"/>
<stop offset="0.5" stop-color="#3D977B" stop-opacity="0"/>
<stop offset="1" stop-color="#3D977B"/>
</linearGradient>
<linearGradient id="paint21_linear_1162_1298" x1="-23.0922" y1="491.808" x2="874.456" y2="491.808" gradientUnits="userSpaceOnUse">
<stop stop-color="#3C937D"/>
<stop offset="0.5" stop-color="#3C937D" stop-opacity="0"/>
<stop offset="1" stop-color="#3C937D"/>
</linearGradient>
<linearGradient id="paint22_linear_1162_1298" x1="-22.6708" y1="507.737" x2="876.77" y2="507.737" gradientUnits="userSpaceOnUse">
<stop stop-color="#3B907F"/>
<stop offset="0.5" stop-color="#3B907F" stop-opacity="0"/>
<stop offset="1" stop-color="#3B907F"/>
</linearGradient>
<linearGradient id="paint23_linear_1162_1298" x1="-22.2474" y1="523.745" x2="879.085" y2="523.745" gradientUnits="userSpaceOnUse">
<stop stop-color="#3A8D81"/>
<stop offset="0.5" stop-color="#3A8D81" stop-opacity="0"/>
<stop offset="1" stop-color="#3A8D81"/>
</linearGradient>
<linearGradient id="paint24_linear_1162_1298" x1="-21.824" y1="539.82" x2="881.4" y2="539.82" gradientUnits="userSpaceOnUse">
<stop stop-color="#398983"/>
<stop offset="0.5" stop-color="#398983" stop-opacity="0"/>
<stop offset="1" stop-color="#398983"/>
</linearGradient>
<linearGradient id="paint25_linear_1162_1298" x1="-21.4024" y1="555.956" x2="883.713" y2="555.956" gradientUnits="userSpaceOnUse">
<stop stop-color="#388685"/>
<stop offset="0.5" stop-color="#388685" stop-opacity="0"/>
<stop offset="1" stop-color="#388685"/>
</linearGradient>
<linearGradient id="paint26_linear_1162_1298" x1="-20.9787" y1="572.143" x2="886.028" y2="572.143" gradientUnits="userSpaceOnUse">
<stop stop-color="#378386"/>
<stop offset="0.5" stop-color="#378386" stop-opacity="0"/>
<stop offset="1" stop-color="#378386"/>
</linearGradient>
<linearGradient id="paint27_linear_1162_1298" x1="-20.5562" y1="583.138" x2="888.342" y2="583.138" gradientUnits="userSpaceOnUse">
<stop stop-color="#367F88"/>
<stop offset="0.5" stop-color="#367F88" stop-opacity="0"/>
<stop offset="1" stop-color="#367F88"/>
</linearGradient>
<linearGradient id="paint28_linear_1162_1298" x1="-20.1333" y1="593.358" x2="890.656" y2="593.358" gradientUnits="userSpaceOnUse">
<stop stop-color="#357C8A"/>
<stop offset="0.5" stop-color="#357C8A" stop-opacity="0"/>
<stop offset="1" stop-color="#357C8A"/>
</linearGradient>
<linearGradient id="paint29_linear_1162_1298" x1="-19.7105" y1="603.569" x2="892.97" y2="603.569" gradientUnits="userSpaceOnUse">
<stop stop-color="#34798C"/>
<stop offset="0.5" stop-color="#34798C" stop-opacity="0"/>
<stop offset="1" stop-color="#34798C"/>
</linearGradient>
<linearGradient id="paint30_linear_1162_1298" x1="-19.2875" y1="613.811" x2="895.284" y2="613.811" gradientUnits="userSpaceOnUse">
<stop stop-color="#33758E"/>
<stop offset="0.5" stop-color="#33758E" stop-opacity="0"/>
<stop offset="1" stop-color="#33758E"/>
</linearGradient>
<linearGradient id="paint31_linear_1162_1298" x1="-18.8645" y1="624.03" x2="897.598" y2="624.03" gradientUnits="userSpaceOnUse">
<stop stop-color="#337290"/>
<stop offset="0.5" stop-color="#337290" stop-opacity="0"/>
<stop offset="1" stop-color="#337290"/>
</linearGradient>
<linearGradient id="paint32_linear_1162_1298" x1="-18.4404" y1="634.26" x2="899.912" y2="634.26" gradientUnits="userSpaceOnUse">
<stop stop-color="#326F92"/>
<stop offset="0.5" stop-color="#326F92" stop-opacity="0"/>
<stop offset="1" stop-color="#326F92"/>
</linearGradient>
<linearGradient id="paint33_linear_1162_1298" x1="-18.0172" y1="644.505" x2="902.226" y2="644.505" gradientUnits="userSpaceOnUse">
<stop stop-color="#316C94"/>
<stop offset="0.5" stop-color="#316C94" stop-opacity="0"/>
<stop offset="1" stop-color="#316C94"/>
</linearGradient>
<linearGradient id="paint34_linear_1162_1298" x1="-17.594" y1="654.766" x2="904.54" y2="654.766" gradientUnits="userSpaceOnUse">
<stop stop-color="#306896"/>
<stop offset="0.5" stop-color="#306896" stop-opacity="0"/>
<stop offset="1" stop-color="#306896"/>
</linearGradient>
<linearGradient id="paint35_linear_1162_1298" x1="-17.1708" y1="665.044" x2="906.854" y2="665.044" gradientUnits="userSpaceOnUse">
<stop stop-color="#2F6598"/>
<stop offset="0.5" stop-color="#2F6598" stop-opacity="0"/>
<stop offset="1" stop-color="#2F6598"/>
</linearGradient>
<linearGradient id="paint36_linear_1162_1298" x1="-16.7478" y1="675.341" x2="909.167" y2="675.341" gradientUnits="userSpaceOnUse">
<stop stop-color="#2E6299"/>
<stop offset="0.5" stop-color="#2E6299" stop-opacity="0"/>
<stop offset="1" stop-color="#2E6299"/>
</linearGradient>
<linearGradient id="paint37_linear_1162_1298" x1="-16.3234" y1="685.657" x2="911.481" y2="685.657" gradientUnits="userSpaceOnUse">
<stop stop-color="#2D5E9B"/>
<stop offset="0.5" stop-color="#2D5E9B" stop-opacity="0"/>
<stop offset="1" stop-color="#2D5E9B"/>
</linearGradient>
<linearGradient id="paint38_linear_1162_1298" x1="-15.9011" y1="695.994" x2="913.794" y2="695.994" gradientUnits="userSpaceOnUse">
<stop stop-color="#2C5B9D"/>
<stop offset="0.5" stop-color="#2C5B9D" stop-opacity="0"/>
<stop offset="1" stop-color="#2C5B9D"/>
</linearGradient>
<linearGradient id="paint39_linear_1162_1298" x1="-15.4767" y1="706.351" x2="916.108" y2="706.351" gradientUnits="userSpaceOnUse">
<stop stop-color="#2B589F"/>
<stop offset="0.5" stop-color="#2B589F" stop-opacity="0"/>
<stop offset="1" stop-color="#2B589F"/>
</linearGradient>
<linearGradient id="paint40_linear_1162_1298" x1="-15.0542" y1="716.732" x2="918.42" y2="716.732" gradientUnits="userSpaceOnUse">
<stop stop-color="#2A54A1"/>
<stop offset="0.5" stop-color="#2A54A1" stop-opacity="0"/>
<stop offset="1" stop-color="#2A54A1"/>
</linearGradient>
<linearGradient id="paint41_linear_1162_1298" x1="-14.6298" y1="727.137" x2="920.735" y2="727.137" gradientUnits="userSpaceOnUse">
<stop stop-color="#2951A3"/>
<stop offset="0.5" stop-color="#2951A3" stop-opacity="0"/>
<stop offset="1" stop-color="#2951A3"/>
</linearGradient>
<clipPath id="clip0_1162_1298">
<rect width="808" height="700" fill="white"/>
</clipPath>
</defs>
</svg>
