<svg width="430" height="932" viewBox="0 0 430 932" fill="none" xmlns="http://www.w3.org/2000/svg">
<g clip-path="url(#clip0_19946_14882)">
<path d="M-313 230.297C-289.747 226.258 -251.866 221.564 -205.688 224.621C-20.2114 237.066 21.9275 359.334 167.558 369.705C287.206 378.111 402.269 305.951 467.115 224.075C522.135 154.644 538.729 81.1738 544.624 41" stroke="url(#paint0_linear_19946_14882)" stroke-width="0.5" stroke-miterlimit="10"/>
<path d="M-312.562 243.069C-288.109 239.794 -248.263 235.209 -200.447 237.611C-15.8439 246.999 25.9675 365.119 170.288 375.381C290.154 384.005 404.016 319.705 469.408 239.248C524.319 171.782 540.804 98.9674 546.917 59.1211" stroke="url(#paint1_linear_19946_14882)" stroke-width="0.5" stroke-miterlimit="10"/>
<path d="M-312.125 255.732C-286.361 253.112 -244.768 248.745 -195.206 250.492C-11.4763 257.042 30.1167 370.904 173.018 381.057C293.212 389.79 405.764 333.46 471.701 254.422C526.504 188.812 542.879 116.652 549.211 77.2422" stroke="url(#paint2_linear_19946_14882)" stroke-width="0.5" stroke-miterlimit="10"/>
<path d="M-311.688 268.508C-284.614 266.543 -241.165 260.211 -190.074 263.596C-7.6546 275.386 34.0476 376.803 175.529 386.956C296.16 395.798 407.402 347.437 473.885 269.818C528.579 206.064 544.954 134.668 551.504 95.6953" stroke="url(#paint3_linear_19946_14882)" stroke-width="0.5" stroke-miterlimit="10"/>
<path d="M-311.25 281.28C-282.975 279.97 -237.671 273.311 -184.833 276.586C-3.39623 287.721 37.9784 382.479 178.259 392.741C299.108 401.693 408.931 361.41 476.179 285.101C530.654 223.203 547.029 152.571 553.906 113.926" stroke="url(#paint4_linear_19946_14882)" stroke-width="0.5" stroke-miterlimit="10"/>
<path d="M-310.82 293.943C-281.236 293.288 -234.184 286.192 -179.71 289.467C0.854333 300.057 42.0107 388.264 180.872 398.417C302.049 407.478 410.562 375.164 478.355 300.384C532.721 240.342 548.987 170.474 556.083 132.156" stroke="url(#paint5_linear_19946_14882)" stroke-width="0.5" stroke-miterlimit="10"/>
<path d="M-310.383 306.715C-279.488 306.715 -230.69 299.401 -174.469 302.458C5.11272 312.283 46.0507 394.05 183.602 404.202C305.106 413.372 412.2 389.028 480.649 315.667C534.796 257.59 551.062 188.377 558.485 150.387" stroke="url(#paint6_linear_19946_14882)" stroke-width="0.5" stroke-miterlimit="10"/>
<path d="M-309.945 319.487C-277.741 320.142 -227.305 312.501 -169.337 315.448C9.3711 324.4 49.9816 399.835 186.223 409.988C308.055 419.376 413.729 403.001 482.833 330.95C536.762 274.729 553.137 206.171 560.779 168.617" stroke="url(#paint7_linear_19946_14882)" stroke-width="0.5" stroke-miterlimit="10"/>
<path d="M-309.508 332.15C-276.102 333.46 -223.92 330.949 -164.096 328.329C13.7386 320.36 54.0216 405.511 188.953 415.664C311.003 425.161 415.368 416.864 485.126 346.124C538.837 291.758 555.212 223.965 563.072 186.738" stroke="url(#paint8_linear_19946_14882)" stroke-width="0.5" stroke-miterlimit="10"/>
<path d="M-309.18 344.922C-274.464 346.887 -220.535 344.813 -159.074 341.32C17.6693 331.385 57.8432 411.296 191.465 421.449C313.842 431.056 416.678 430.728 487.201 361.407C540.693 308.788 557.068 241.868 565.256 204.969" stroke="url(#paint9_linear_19946_14882)" stroke-width="0.5" stroke-miterlimit="10"/>
<path d="M-308.742 357.698C-272.717 360.318 -217.041 358.571 -153.833 354.314C21.9277 342.415 61.8832 417.085 194.195 427.238C316.9 436.954 418.317 444.705 489.603 376.693C542.768 325.93 559.362 259.774 567.768 223.203" stroke="url(#paint10_linear_19946_14882)" stroke-width="0.5" stroke-miterlimit="10"/>
<path d="M-308.305 370.361C-270.969 373.636 -213.547 372.326 -148.701 367.195C25.9677 353.44 65.8141 422.761 196.816 432.805C319.848 442.63 419.737 458.35 491.788 391.758C544.734 342.85 561.328 277.35 569.952 241.324" stroke="url(#paint11_linear_19946_14882)" stroke-width="0.5" stroke-miterlimit="10"/>
<path d="M-307.867 383.133C-269.331 387.063 -210.162 386.19 -143.46 380.185C30.117 364.683 69.8541 428.656 199.546 438.59C322.906 448.525 421.266 472.323 494.081 407.041C546.7 359.989 563.403 295.253 572.354 259.555" stroke="url(#paint12_linear_19946_14882)" stroke-width="0.5" stroke-miterlimit="10"/>
<path d="M-307.43 395.905C-267.583 400.49 -206.668 400.053 -138.219 393.176C34.3753 375.927 73.8941 434.441 202.276 444.376C325.963 454.419 422.795 486.187 496.374 422.324C548.557 377.019 565.587 313.156 574.757 277.785" stroke="url(#paint13_linear_19946_14882)" stroke-width="0.5" stroke-miterlimit="10"/>
<path d="M-307 408.568C-265.844 413.808 -203.181 413.808 -133.095 406.057C38.4076 387.171 77.9264 440.117 204.889 450.051C328.904 460.313 424.098 500.05 498.551 437.497C550.406 393.939 567.545 330.949 576.933 295.906" stroke="url(#paint14_linear_19946_14882)" stroke-width="0.5" stroke-miterlimit="10"/>
<path d="M-306.562 421.34C-264.205 427.235 -199.796 427.672 -127.854 419.047C42.666 398.524 81.9664 445.684 207.619 455.837C331.961 465.99 425.627 513.914 500.844 452.889C552.371 411.187 569.62 348.962 579.336 314.246" stroke="url(#paint15_linear_19946_14882)" stroke-width="0.5" stroke-miterlimit="10"/>
<path d="M-306.125 434.112C-262.458 440.662 -196.302 441.645 -122.723 432.038C46.8152 409.986 85.8973 451.47 210.24 461.622C334.8 471.884 426.938 527.778 503.137 468.172C554.228 428.217 571.804 366.755 581.738 332.477" stroke="url(#paint16_linear_19946_14882)" stroke-width="0.5" stroke-miterlimit="10"/>
<path d="M-305.688 446.779C-260.71 453.984 -192.808 455.512 -117.482 444.923C50.9644 421.342 89.9373 457.15 212.97 467.302C337.858 477.673 428.358 541.536 505.431 483.35C556.085 445.141 573.879 384.553 584.032 350.602" stroke="url(#paint17_linear_19946_14882)" stroke-width="0.5" stroke-miterlimit="10"/>
<path d="M-305.359 459.551C-259.072 467.411 -189.532 469.485 -112.46 457.913C55.0042 432.914 93.7589 462.935 215.481 473.087C340.697 483.568 429.45 555.4 507.506 498.633C557.723 462.062 575.736 402.456 586.216 368.832" stroke="url(#paint18_linear_19946_14882)" stroke-width="0.5" stroke-miterlimit="10"/>
<path d="M-304.922 472.323C-257.434 480.838 -186.038 483.458 -107.219 470.904C59.2626 444.485 97.7989 468.72 218.211 478.873C343.754 489.462 430.761 569.264 509.799 513.916C559.47 479.091 577.811 420.359 588.509 387.172" stroke="url(#paint19_linear_19946_14882)" stroke-width="0.5" stroke-miterlimit="10"/>
<path d="M-304.484 484.986C-255.686 494.156 -182.544 497.322 -102.087 483.785C63.4118 456.056 101.839 474.396 220.832 484.549C346.703 495.247 431.963 583.018 511.983 529.089C561.218 495.902 579.886 438.153 590.802 405.293" stroke="url(#paint20_linear_19946_14882)" stroke-width="0.5" stroke-miterlimit="10"/>
<path d="M-304.047 497.757C-253.939 507.692 -179.05 511.403 -96.846 496.775C67.561 467.627 105.77 480.181 223.562 490.225C349.76 501.033 433.274 596.664 514.276 544.263C562.965 512.823 581.961 455.837 593.205 423.414" stroke="url(#paint21_linear_19946_14882)" stroke-width="0.5" stroke-miterlimit="10"/>
<path d="M-303.609 510.533C-252.191 521.123 -175.555 525.489 -91.7143 509.769C71.7102 479.311 109.701 485.971 226.183 496.014C352.709 506.931 434.476 610.422 516.57 559.55C564.713 529.747 584.036 473.744 595.498 441.648" stroke="url(#paint22_linear_19946_14882)" stroke-width="0.5" stroke-miterlimit="10"/>
<path d="M-303.172 523.196C-250.553 534.44 -172.061 539.462 -86.4734 522.65C75.9686 490.882 113.85 491.647 228.913 501.69C355.657 512.716 435.677 624.067 518.863 574.723C566.46 546.449 586.22 491.537 597.901 459.77" stroke="url(#paint23_linear_19946_14882)" stroke-width="0.5" stroke-miterlimit="10"/>
<path d="M-302.734 535.968C-248.805 547.868 -168.567 553.544 -81.2325 535.75C80.3362 502.781 117.89 497.541 231.643 507.585C358.715 518.829 436.879 637.822 521.157 590.116C568.208 563.479 588.295 509.55 600.303 478.109" stroke="url(#paint24_linear_19946_14882)" stroke-width="0.5" stroke-miterlimit="10"/>
<path d="M-302.305 548.74C-247.066 561.295 -165.081 567.627 -76.1086 548.74C84.4776 514.571 121.813 503.436 234.256 513.37C361.546 524.614 437.964 651.468 523.224 605.399C569.729 580.29 590.144 527.453 602.371 496.34" stroke="url(#paint25_linear_19946_14882)" stroke-width="0.5" stroke-miterlimit="10"/>
<path d="M-301.867 561.403C-245.318 574.613 -161.586 581.709 -70.8677 561.622C88.7359 526.251 125.853 509.112 236.986 519.046C364.713 530.509 439.165 665.004 525.626 620.682C571.477 597.101 592.437 545.247 604.882 514.57" stroke="url(#paint26_linear_19946_14882)" stroke-width="0.5" stroke-miterlimit="10"/>
<path d="M-301.539 574.176C-243.789 588.041 -158.201 595.901 -65.8453 574.613C92.8849 538.042 129.675 514.898 239.388 524.833C367.442 536.404 439.93 678.541 527.592 635.966C572.897 613.914 594.184 563.151 606.957 532.911" stroke="url(#paint27_linear_19946_14882)" stroke-width="0.5" stroke-miterlimit="10"/>
<path d="M-301.102 586.839C-242.042 601.359 -154.707 609.983 -60.6044 587.494C97.1433 549.722 133.715 520.574 242.118 530.508C370.5 542.189 441.023 691.968 529.994 651.139C574.644 630.616 596.369 580.944 609.36 551.032" stroke="url(#paint28_linear_19946_14882)" stroke-width="0.5" stroke-miterlimit="10"/>
<path d="M-300.664 599.613C-240.294 614.787 -151.104 624.175 -55.4727 600.486C101.402 561.622 137.645 526.361 244.739 536.295C373.448 548.195 442.115 705.397 532.179 666.424C576.173 647.319 598.444 598.849 611.653 569.264" stroke="url(#paint29_linear_19946_14882)" stroke-width="0.5" stroke-miterlimit="10"/>
<path d="M-300.227 612.386C-238.656 628.215 -147.61 638.368 -50.2318 613.477C105.769 573.522 141.686 532.365 247.469 542.081C376.397 554.308 443.098 718.824 534.472 681.707C577.812 664.131 600.519 616.643 614.055 587.495" stroke="url(#paint30_linear_19946_14882)" stroke-width="0.5" stroke-miterlimit="10"/>
<path d="M-299.789 625.048C-236.908 641.533 -144.006 652.559 -45.1001 626.358C110.028 585.311 145.616 538.041 250.09 547.757C379.345 560.093 444.082 731.924 536.656 696.881C579.45 680.724 602.485 634.437 616.24 605.616" stroke="url(#paint31_linear_19946_14882)" stroke-width="0.5" stroke-miterlimit="10"/>
<path d="M-299.352 637.822C-235.161 654.961 -140.512 666.861 -39.8592 639.35C114.395 597.211 149.656 543.828 252.82 553.435C382.403 565.989 445.174 745.134 538.95 712.165C581.088 697.318 604.56 652.341 618.642 623.848" stroke="url(#paint32_linear_19946_14882)" stroke-width="0.5" stroke-miterlimit="10"/>
<path d="M-298.914 650.597C-233.413 668.391 -136.909 681.164 -34.6183 652.343C118.763 609.113 153.696 549.725 255.55 559.223C385.46 571.886 446.158 758.236 541.243 727.342C582.727 713.914 606.744 670.138 621.045 641.972" stroke="url(#paint33_linear_19946_14882)" stroke-width="0.5" stroke-miterlimit="10"/>
<path d="M-298.484 663.256C-231.783 681.705 -133.313 695.351 -29.4944 665.221C123.013 621.008 157.62 555.398 258.163 564.896C388.401 577.668 447.133 771.114 543.419 742.512C584.248 730.394 608.702 687.928 623.221 660.09" stroke="url(#paint34_linear_19946_14882)" stroke-width="0.5" stroke-miterlimit="10"/>
<path d="M-298.047 676.031C-230.035 695.135 -129.71 709.655 -24.2535 678.214C127.49 632.91 161.66 561.186 260.893 570.684C391.349 583.566 448.116 784.107 545.822 757.798C586.105 746.99 610.886 705.725 625.733 678.433" stroke="url(#paint35_linear_19946_14882)" stroke-width="0.5" stroke-miterlimit="10"/>
<path d="M-297.719 688.804C-228.397 708.563 -126.216 724.065 -19.2312 691.205C131.639 644.918 165.481 566.972 263.405 576.47C394.188 589.461 448.99 796.989 547.897 773.19C587.525 763.693 612.852 723.737 627.917 696.773" stroke="url(#paint36_linear_19946_14882)" stroke-width="0.5" stroke-miterlimit="10"/>
<path d="M-297.281 701.467C-226.65 721.882 -122.612 738.366 -13.9903 704.087C136.116 656.817 169.63 572.649 266.135 582.147C397.246 595.247 450.083 809.543 550.19 788.365C589.272 780.068 614.927 741.532 630.21 714.895" stroke="url(#paint37_linear_19946_14882)" stroke-width="0.5" stroke-miterlimit="10"/>
<path d="M-296.844 714.24C-225.011 735.309 -119.009 752.776 -8.85853 717.078C140.483 668.717 173.561 578.435 268.756 587.932C400.194 601.251 451.066 822.207 552.374 803.648C590.91 796.552 616.892 759.435 632.503 733.126" stroke="url(#paint38_linear_19946_14882)" stroke-width="0.5" stroke-miterlimit="10"/>
<path d="M-296.406 727.009C-223.264 748.734 -115.297 767.183 -3.61768 730.066C144.96 680.722 177.601 584.218 271.486 593.715C403.252 607.143 452.159 834.758 554.667 818.929C592.549 813.034 619.077 777.336 634.906 751.354" stroke="url(#paint39_linear_19946_14882)" stroke-width="0.5" stroke-miterlimit="10"/>
<path d="M-295.969 739.673C-221.516 762.052 -111.693 781.593 1.51406 742.948C149.328 692.621 181.532 590.004 274.107 599.392C406.2 612.929 453.142 847.094 556.852 834.103C594.296 829.409 621.043 795.021 637.09 769.476" stroke="url(#paint40_linear_19946_14882)" stroke-width="0.5" stroke-miterlimit="10"/>
<path d="M-295.531 752.448C-219.878 775.592 -107.981 796.006 6.75495 755.942C153.804 704.633 185.572 595.683 276.837 605.181C409.257 618.827 454.344 859.433 559.254 849.39C596.153 845.896 623.227 812.927 639.602 787.71" stroke="url(#paint41_linear_19946_14882)" stroke-width="0.5" stroke-miterlimit="10"/>
</g>
<defs>
<linearGradient id="paint0_linear_19946_14882" x1="-313" y1="205.832" x2="544.845" y2="205.832" gradientUnits="userSpaceOnUse">
<stop stop-color="#50D955"/>
<stop offset="0.5" stop-color="#50D955" stop-opacity="0"/>
<stop offset="1" stop-color="#50D955"/>
</linearGradient>
<linearGradient id="paint1_linear_19946_14882" x1="-312.565" y1="217.855" x2="547.161" y2="217.855" gradientUnits="userSpaceOnUse">
<stop stop-color="#4FD657"/>
<stop offset="0.5" stop-color="#4FD657" stop-opacity="0"/>
<stop offset="1" stop-color="#4FD657"/>
</linearGradient>
<linearGradient id="paint2_linear_19946_14882" x1="-312.131" y1="229.89" x2="549.477" y2="229.89" gradientUnits="userSpaceOnUse">
<stop stop-color="#4ED259"/>
<stop offset="0.5" stop-color="#4ED259" stop-opacity="0"/>
<stop offset="1" stop-color="#4ED259"/>
</linearGradient>
<linearGradient id="paint3_linear_19946_14882" x1="-311.698" y1="241.944" x2="551.793" y2="241.944" gradientUnits="userSpaceOnUse">
<stop stop-color="#4DCF5B"/>
<stop offset="0.5" stop-color="#4DCF5B" stop-opacity="0"/>
<stop offset="1" stop-color="#4DCF5B"/>
</linearGradient>
<linearGradient id="paint4_linear_19946_14882" x1="-311.266" y1="254.017" x2="554.109" y2="254.017" gradientUnits="userSpaceOnUse">
<stop stop-color="#4CCC5D"/>
<stop offset="0.5" stop-color="#4CCC5D" stop-opacity="0"/>
<stop offset="1" stop-color="#4CCC5D"/>
</linearGradient>
<linearGradient id="paint5_linear_19946_14882" x1="-310.841" y1="266.124" x2="556.417" y2="266.124" gradientUnits="userSpaceOnUse">
<stop stop-color="#4BC85F"/>
<stop offset="0.5" stop-color="#4BC85F" stop-opacity="0"/>
<stop offset="1" stop-color="#4BC85F"/>
</linearGradient>
<linearGradient id="paint6_linear_19946_14882" x1="-310.41" y1="278.282" x2="558.732" y2="278.282" gradientUnits="userSpaceOnUse">
<stop stop-color="#4AC560"/>
<stop offset="0.5" stop-color="#4AC560" stop-opacity="0"/>
<stop offset="1" stop-color="#4AC560"/>
</linearGradient>
<linearGradient id="paint7_linear_19946_14882" x1="-309.99" y1="290.524" x2="561.048" y2="290.524" gradientUnits="userSpaceOnUse">
<stop stop-color="#49C262"/>
<stop offset="0.5" stop-color="#49C262" stop-opacity="0"/>
<stop offset="1" stop-color="#49C262"/>
</linearGradient>
<linearGradient id="paint8_linear_19946_14882" x1="-309.57" y1="302.902" x2="563.364" y2="302.902" gradientUnits="userSpaceOnUse">
<stop stop-color="#48BE64"/>
<stop offset="0.5" stop-color="#48BE64" stop-opacity="0"/>
<stop offset="1" stop-color="#48BE64"/>
</linearGradient>
<linearGradient id="paint9_linear_19946_14882" x1="-309.149" y1="315.499" x2="565.68" y2="315.499" gradientUnits="userSpaceOnUse">
<stop stop-color="#47BB66"/>
<stop offset="0.5" stop-color="#47BB66" stop-opacity="0"/>
<stop offset="1" stop-color="#47BB66"/>
</linearGradient>
<linearGradient id="paint10_linear_19946_14882" x1="-308.729" y1="328.418" x2="567.995" y2="328.418" gradientUnits="userSpaceOnUse">
<stop stop-color="#46B868"/>
<stop offset="0.5" stop-color="#46B868" stop-opacity="0"/>
<stop offset="1" stop-color="#46B868"/>
</linearGradient>
<linearGradient id="paint11_linear_19946_14882" x1="-308.307" y1="341.73" x2="570.311" y2="341.73" gradientUnits="userSpaceOnUse">
<stop stop-color="#46B56A"/>
<stop offset="0.5" stop-color="#46B56A" stop-opacity="0"/>
<stop offset="1" stop-color="#46B56A"/>
</linearGradient>
<linearGradient id="paint12_linear_19946_14882" x1="-307.886" y1="355.465" x2="572.626" y2="355.465" gradientUnits="userSpaceOnUse">
<stop stop-color="#45B16C"/>
<stop offset="0.5" stop-color="#45B16C" stop-opacity="0"/>
<stop offset="1" stop-color="#45B16C"/>
</linearGradient>
<linearGradient id="paint13_linear_19946_14882" x1="-307.464" y1="369.602" x2="574.942" y2="369.602" gradientUnits="userSpaceOnUse">
<stop stop-color="#44AE6E"/>
<stop offset="0.5" stop-color="#44AE6E" stop-opacity="0"/>
<stop offset="1" stop-color="#44AE6E"/>
</linearGradient>
<linearGradient id="paint14_linear_19946_14882" x1="-307.05" y1="384.095" x2="577.25" y2="384.095" gradientUnits="userSpaceOnUse">
<stop stop-color="#43AB70"/>
<stop offset="0.5" stop-color="#43AB70" stop-opacity="0"/>
<stop offset="1" stop-color="#43AB70"/>
</linearGradient>
<linearGradient id="paint15_linear_19946_14882" x1="-306.628" y1="398.859" x2="579.565" y2="398.859" gradientUnits="userSpaceOnUse">
<stop stop-color="#42A772"/>
<stop offset="0.5" stop-color="#42A772" stop-opacity="0"/>
<stop offset="1" stop-color="#42A772"/>
</linearGradient>
<linearGradient id="paint16_linear_19946_14882" x1="-306.205" y1="413.916" x2="581.881" y2="413.916" gradientUnits="userSpaceOnUse">
<stop stop-color="#41A473"/>
<stop offset="0.5" stop-color="#41A473" stop-opacity="0"/>
<stop offset="1" stop-color="#41A473"/>
</linearGradient>
<linearGradient id="paint17_linear_19946_14882" x1="-305.783" y1="429.191" x2="584.196" y2="429.191" gradientUnits="userSpaceOnUse">
<stop stop-color="#40A175"/>
<stop offset="0.5" stop-color="#40A175" stop-opacity="0"/>
<stop offset="1" stop-color="#40A175"/>
</linearGradient>
<linearGradient id="paint18_linear_19946_14882" x1="-305.36" y1="444.642" x2="586.511" y2="444.642" gradientUnits="userSpaceOnUse">
<stop stop-color="#3F9D77"/>
<stop offset="0.5" stop-color="#3F9D77" stop-opacity="0"/>
<stop offset="1" stop-color="#3F9D77"/>
</linearGradient>
<linearGradient id="paint19_linear_19946_14882" x1="-304.937" y1="460.243" x2="588.827" y2="460.243" gradientUnits="userSpaceOnUse">
<stop stop-color="#3E9A79"/>
<stop offset="0.5" stop-color="#3E9A79" stop-opacity="0"/>
<stop offset="1" stop-color="#3E9A79"/>
</linearGradient>
<linearGradient id="paint20_linear_19946_14882" x1="-304.514" y1="475.971" x2="591.142" y2="475.971" gradientUnits="userSpaceOnUse">
<stop stop-color="#3D977B"/>
<stop offset="0.5" stop-color="#3D977B" stop-opacity="0"/>
<stop offset="1" stop-color="#3D977B"/>
</linearGradient>
<linearGradient id="paint21_linear_19946_14882" x1="-304.091" y1="491.807" x2="593.457" y2="491.807" gradientUnits="userSpaceOnUse">
<stop stop-color="#3C937D"/>
<stop offset="0.5" stop-color="#3C937D" stop-opacity="0"/>
<stop offset="1" stop-color="#3C937D"/>
</linearGradient>
<linearGradient id="paint22_linear_19946_14882" x1="-303.668" y1="507.739" x2="595.773" y2="507.739" gradientUnits="userSpaceOnUse">
<stop stop-color="#3B907F"/>
<stop offset="0.5" stop-color="#3B907F" stop-opacity="0"/>
<stop offset="1" stop-color="#3B907F"/>
</linearGradient>
<linearGradient id="paint23_linear_19946_14882" x1="-303.244" y1="523.746" x2="598.088" y2="523.746" gradientUnits="userSpaceOnUse">
<stop stop-color="#3A8D81"/>
<stop offset="0.5" stop-color="#3A8D81" stop-opacity="0"/>
<stop offset="1" stop-color="#3A8D81"/>
</linearGradient>
<linearGradient id="paint24_linear_19946_14882" x1="-302.821" y1="539.821" x2="600.403" y2="539.821" gradientUnits="userSpaceOnUse">
<stop stop-color="#398983"/>
<stop offset="0.5" stop-color="#398983" stop-opacity="0"/>
<stop offset="1" stop-color="#398983"/>
</linearGradient>
<linearGradient id="paint25_linear_19946_14882" x1="-302.405" y1="555.956" x2="602.71" y2="555.956" gradientUnits="userSpaceOnUse">
<stop stop-color="#388685"/>
<stop offset="0.5" stop-color="#388685" stop-opacity="0"/>
<stop offset="1" stop-color="#388685"/>
</linearGradient>
<linearGradient id="paint26_linear_19946_14882" x1="-301.982" y1="572.142" x2="605.025" y2="572.142" gradientUnits="userSpaceOnUse">
<stop stop-color="#378386"/>
<stop offset="0.5" stop-color="#378386" stop-opacity="0"/>
<stop offset="1" stop-color="#378386"/>
</linearGradient>
<linearGradient id="paint27_linear_19946_14882" x1="-301.558" y1="583.138" x2="607.34" y2="583.138" gradientUnits="userSpaceOnUse">
<stop stop-color="#367F88"/>
<stop offset="0.5" stop-color="#367F88" stop-opacity="0"/>
<stop offset="1" stop-color="#367F88"/>
</linearGradient>
<linearGradient id="paint28_linear_19946_14882" x1="-301.134" y1="593.357" x2="609.655" y2="593.357" gradientUnits="userSpaceOnUse">
<stop stop-color="#357C8A"/>
<stop offset="0.5" stop-color="#357C8A" stop-opacity="0"/>
<stop offset="1" stop-color="#357C8A"/>
</linearGradient>
<linearGradient id="paint29_linear_19946_14882" x1="-300.71" y1="603.569" x2="611.97" y2="603.569" gradientUnits="userSpaceOnUse">
<stop stop-color="#34798C"/>
<stop offset="0.5" stop-color="#34798C" stop-opacity="0"/>
<stop offset="1" stop-color="#34798C"/>
</linearGradient>
<linearGradient id="paint30_linear_19946_14882" x1="-300.286" y1="613.812" x2="614.285" y2="613.812" gradientUnits="userSpaceOnUse">
<stop stop-color="#33758E"/>
<stop offset="0.5" stop-color="#33758E" stop-opacity="0"/>
<stop offset="1" stop-color="#33758E"/>
</linearGradient>
<linearGradient id="paint31_linear_19946_14882" x1="-299.863" y1="624.029" x2="616.6" y2="624.029" gradientUnits="userSpaceOnUse">
<stop stop-color="#337290"/>
<stop offset="0.5" stop-color="#337290" stop-opacity="0"/>
<stop offset="1" stop-color="#337290"/>
</linearGradient>
<linearGradient id="paint32_linear_19946_14882" x1="-299.438" y1="634.26" x2="618.914" y2="634.26" gradientUnits="userSpaceOnUse">
<stop stop-color="#326F92"/>
<stop offset="0.5" stop-color="#326F92" stop-opacity="0"/>
<stop offset="1" stop-color="#326F92"/>
</linearGradient>
<linearGradient id="paint33_linear_19946_14882" x1="-299.014" y1="644.507" x2="621.229" y2="644.507" gradientUnits="userSpaceOnUse">
<stop stop-color="#316C94"/>
<stop offset="0.5" stop-color="#316C94" stop-opacity="0"/>
<stop offset="1" stop-color="#316C94"/>
</linearGradient>
<linearGradient id="paint34_linear_19946_14882" x1="-298.598" y1="654.764" x2="623.536" y2="654.764" gradientUnits="userSpaceOnUse">
<stop stop-color="#306896"/>
<stop offset="0.5" stop-color="#306896" stop-opacity="0"/>
<stop offset="1" stop-color="#306896"/>
</linearGradient>
<linearGradient id="paint35_linear_19946_14882" x1="-298.174" y1="665.045" x2="625.851" y2="665.045" gradientUnits="userSpaceOnUse">
<stop stop-color="#2F6598"/>
<stop offset="0.5" stop-color="#2F6598" stop-opacity="0"/>
<stop offset="1" stop-color="#2F6598"/>
</linearGradient>
<linearGradient id="paint36_linear_19946_14882" x1="-297.75" y1="675.342" x2="628.165" y2="675.342" gradientUnits="userSpaceOnUse">
<stop stop-color="#2E6299"/>
<stop offset="0.5" stop-color="#2E6299" stop-opacity="0"/>
<stop offset="1" stop-color="#2E6299"/>
</linearGradient>
<linearGradient id="paint37_linear_19946_14882" x1="-297.325" y1="685.658" x2="630.479" y2="685.658" gradientUnits="userSpaceOnUse">
<stop stop-color="#2D5E9B"/>
<stop offset="0.5" stop-color="#2D5E9B" stop-opacity="0"/>
<stop offset="1" stop-color="#2D5E9B"/>
</linearGradient>
<linearGradient id="paint38_linear_19946_14882" x1="-296.901" y1="695.994" x2="632.794" y2="695.994" gradientUnits="userSpaceOnUse">
<stop stop-color="#2C5B9D"/>
<stop offset="0.5" stop-color="#2C5B9D" stop-opacity="0"/>
<stop offset="1" stop-color="#2C5B9D"/>
</linearGradient>
<linearGradient id="paint39_linear_19946_14882" x1="-296.477" y1="706.349" x2="635.108" y2="706.349" gradientUnits="userSpaceOnUse">
<stop stop-color="#2B589F"/>
<stop offset="0.5" stop-color="#2B589F" stop-opacity="0"/>
<stop offset="1" stop-color="#2B589F"/>
</linearGradient>
<linearGradient id="paint40_linear_19946_14882" x1="-296.052" y1="716.73" x2="637.422" y2="716.73" gradientUnits="userSpaceOnUse">
<stop stop-color="#2A54A1"/>
<stop offset="0.5" stop-color="#2A54A1" stop-opacity="0"/>
<stop offset="1" stop-color="#2A54A1"/>
</linearGradient>
<linearGradient id="paint41_linear_19946_14882" x1="-295.628" y1="727.138" x2="639.736" y2="727.138" gradientUnits="userSpaceOnUse">
<stop stop-color="#2951A3"/>
<stop offset="0.5" stop-color="#2951A3" stop-opacity="0"/>
<stop offset="1" stop-color="#2951A3"/>
</linearGradient>
<clipPath id="clip0_19946_14882">
<rect width="430" height="932" fill="white"/>
</clipPath>
</defs>
</svg>
