<svg width="32" height="32" viewBox="0 0 32 32" fill="none" xmlns="http://www.w3.org/2000/svg">
<path d="M26.9996 4.00011V21.5001C27.002 22.5068 26.6677 23.4855 26.0499 24.2803C25.432 25.0752 24.5661 25.6406 23.5899 25.8866C22.6136 26.1327 21.5832 26.0452 20.6624 25.6381C19.7416 25.231 18.9834 24.5276 18.5085 23.64C18.0335 22.7523 17.8689 21.7314 18.0411 20.7394C18.2132 19.7475 18.7121 18.8416 19.4584 18.1659C20.2046 17.4902 21.1555 17.0834 22.1596 17.0104C23.1637 16.9373 24.1633 17.2021 24.9996 17.7626V10.2751L10.9996 13.7751V25.5001C11.002 26.5068 10.6677 27.4855 10.0499 28.2803C9.43199 29.0752 8.56608 29.6406 7.58985 29.8866C6.61363 30.1327 5.58317 30.0452 4.6624 29.6381C3.74163 29.231 2.98344 28.5276 2.50845 27.64C2.03345 26.7523 1.86893 25.7313 2.04106 24.7394C2.21319 23.7475 2.71207 22.8416 3.45836 22.1659C4.20465 21.4902 5.15546 21.0834 6.15955 21.0103C7.16365 20.9373 8.16334 21.2021 8.9996 21.7626V8.00011C8.99879 7.77558 9.07356 7.55732 9.21188 7.38046C9.35019 7.2036 9.544 7.07843 9.7621 7.02511L25.7621 3.02511C25.9088 2.99028 26.0614 2.98905 26.2086 3.02152C26.3558 3.05399 26.4937 3.11931 26.6121 3.21261C26.7338 3.30445 26.8322 3.42353 26.8995 3.56029C26.9668 3.69705 27.0011 3.84769 26.9996 4.00011Z" fill="#50D955"/>
</svg>
