<svg width="48" height="48" viewBox="0 0 48 48" fill="none" xmlns="http://www.w3.org/2000/svg">
<g id="play">
<path id="Union" fill-rule="evenodd" clip-rule="evenodd" d="M6 13.6667C6 12.7462 6.74619 12 7.66667 12H8.33326C9.25373 12 9.99992 12.7462 9.99992 13.6667V34.3329C9.99992 35.2533 9.25373 35.9995 8.33325 35.9995H7.66666C6.74619 35.9995 6 35.2533 6 34.3329V13.6667ZM21.9996 13.6667C21.9996 12.7462 22.7458 12 23.6662 12H24.3328C25.2533 12 25.9995 12.7462 25.9995 13.6667V34.3329C25.9995 35.2533 25.2533 35.9995 24.3328 35.9995H23.6662C22.7458 35.9995 21.9996 35.2533 21.9996 34.3329V13.6667ZM15.6669 19.9996C14.7464 19.9996 14.0002 20.7458 14.0002 21.6663V34.3327C14.0002 35.2531 14.7464 35.9993 15.6669 35.9993H16.3335C17.254 35.9993 18.0002 35.2531 18.0002 34.3327V21.6663C18.0002 20.7458 17.254 19.9996 16.3335 19.9996H15.6669ZM38.0004 21.6665C38.0004 20.746 38.7466 19.9998 39.667 19.9998H40.3336C41.2541 19.9998 42.0003 20.746 42.0003 21.6665V34.3328C42.0003 35.2533 41.2541 35.9995 40.3336 35.9995H39.667C38.7465 35.9995 38.0004 35.2533 38.0004 34.3328V21.6665ZM31.6666 28.0002C30.7462 28.0002 30 28.7464 30 29.6669V34.3334C30 35.2538 30.7462 36 31.6666 36H32.3332C33.2537 36 33.9999 35.2538 33.9999 34.3334V29.6669C33.9999 28.7464 33.2537 28.0002 32.3332 28.0002H31.6666Z" fill="#50D955"/>
</g>
</svg>
