<svg width="36" height="36" viewBox="0 0 36 36" fill="none" xmlns="http://www.w3.org/2000/svg">
<g id="send">
<path id="Vector" d="M31.6376 6.04935C31.7376 6.37616 31.7376 6.72539 31.6376 7.05221L24.3262 30.9391C24.2395 31.2219 24.0812 31.4775 23.8665 31.6811C23.6518 31.8846 23.3881 32.0291 23.1011 32.1005C22.814 32.172 22.5133 32.1679 22.2283 32.0888C21.9433 32.0096 21.6836 31.858 21.4745 31.6488L16.1816 26.3559L12.7959 29.7425C12.676 29.862 12.5233 29.9434 12.3572 29.9763C12.1911 30.0092 12.019 29.9921 11.8626 29.9273C11.7062 29.8625 11.5725 29.7528 11.4783 29.612C11.3842 29.4713 11.3338 29.3058 11.3336 29.1365V21.5791L21.0305 13.0231L8.52989 18.7042L4.89989 15.0751C4.69088 14.8658 4.53955 14.6061 4.46062 14.321C4.38168 14.036 4.37784 13.7354 4.44945 13.4485C4.52105 13.1615 4.66568 12.898 4.86928 12.6834C5.07287 12.4689 5.3285 12.3107 5.61132 12.2242L29.4956 4.91106C29.7109 4.84514 29.937 4.82228 30.1611 4.84376C30.3853 4.86525 30.6029 4.93067 30.8018 5.0363C31.0006 5.14192 31.1767 5.28567 31.3199 5.45934C31.4632 5.63302 31.5709 5.83321 31.6368 6.04849L31.6376 6.04935Z" fill="#50D955"/>
</g>
</svg>
