<svg xmlns="http://www.w3.org/2000/svg" width="32" height="32" viewBox="0 0 32 32" fill="none">
<path d="M16.0026 2.33203C8.46927 2.33203 2.33594 8.46536 2.33594 15.9987C2.33594 23.532 8.46927 29.6654 16.0026 29.6654C23.5359 29.6654 29.6693 23.532 29.6693 15.9987C29.6693 8.46536 23.5359 2.33203 16.0026 2.33203ZM16.0026 7.33203C18.2026 7.33203 20.0026 9.13203 20.0026 11.332C20.0026 13.532 18.2026 15.332 16.0026 15.332C13.8026 15.332 12.0026 13.532 12.0026 11.332C12.0026 9.13203 13.8026 7.33203 16.0026 7.33203ZM23.4026 23.1987C22.6693 24.1987 19.7359 26.332 16.0026 26.332C12.2693 26.332 9.33594 24.1987 8.6026 23.1987C8.33594 22.8654 8.26927 22.532 8.33594 22.1987C9.26927 18.732 12.4026 16.332 16.0026 16.332C19.6026 16.332 22.7359 18.732 23.6693 22.1987C23.7359 22.532 23.6693 22.8654 23.4026 23.1987Z" fill="#50D955"/>
</svg>