<svg width="32" height="32" viewBox="0 0 32 32" fill="none" xmlns="http://www.w3.org/2000/svg">
<g id="ph:speaker-high-fill">
<path id="Vector" d="M31 16C31.0045 17.3141 30.7482 18.6161 30.2462 19.8305C29.7441 21.0449 29.0061 22.1477 28.075 23.075C27.883 23.2585 27.628 23.3614 27.3625 23.3625C27.1005 23.3621 26.8492 23.2589 26.6625 23.075C26.5684 22.9831 26.4936 22.8732 26.4426 22.7519C26.3915 22.6306 26.3652 22.5004 26.3652 22.3688C26.3652 22.2372 26.3915 22.1069 26.4426 21.9856C26.4936 21.8644 26.5684 21.7545 26.6625 21.6625C28.1601 20.1585 29.001 18.1225 29.001 16C29.001 13.8776 28.1601 11.8415 26.6625 10.3375C26.5684 10.2456 26.4936 10.1357 26.4426 10.0144C26.3915 9.89313 26.3652 9.76287 26.3652 9.63128C26.3652 9.49968 26.3915 9.36942 26.4426 9.24814C26.4936 9.12685 26.5684 9.017 26.6625 8.92503C26.85 8.73801 27.104 8.63299 27.3687 8.63299C27.6335 8.63299 27.8875 8.73801 28.075 8.92503C29.0061 9.85234 29.7441 10.9551 30.2462 12.1695C30.7482 13.384 31.0045 14.6859 31 16ZM20 4.00002V28C20.0001 28.1877 19.9475 28.3717 19.848 28.5308C19.7485 28.69 19.6063 28.8179 19.4375 28.9C19.3004 28.9641 19.1513 28.9982 19 29C18.7781 28.9982 18.5629 28.9236 18.3875 28.7875L9.6625 22H4C3.46957 22 2.96086 21.7893 2.58579 21.4142C2.21071 21.0392 2 20.5305 2 20V12C2 11.4696 2.21071 10.9609 2.58579 10.5858C2.96086 10.2107 3.46957 10 4 10H9.6625L18.3875 3.21252C18.5352 3.09811 18.7119 3.02734 18.8977 3.00824C19.0835 2.98913 19.271 3.02245 19.4388 3.10442C19.6067 3.1864 19.7482 3.31374 19.8474 3.47203C19.9466 3.63032 19.9994 3.81323 20 4.00002ZM4 20H9V12H4V20ZM23.125 12.4625C23.0309 12.5545 22.9561 12.6644 22.9051 12.7856C22.854 12.9069 22.8277 13.0372 22.8277 13.1688C22.8277 13.3004 22.854 13.4306 22.9051 13.5519C22.9561 13.6732 23.0309 13.7831 23.125 13.875C23.6868 14.4396 24.0022 15.2036 24.0022 16C24.0022 16.7965 23.6868 17.5605 23.125 18.125C23.0309 18.217 22.9561 18.3269 22.9051 18.4481C22.854 18.5694 22.8277 18.6997 22.8277 18.8313C22.8277 18.9629 22.854 19.0931 22.9051 19.2144C22.9561 19.3357 23.0309 19.4456 23.125 19.5375C23.3117 19.7214 23.563 19.8246 23.825 19.825C24.0905 19.8239 24.3455 19.721 24.5375 19.5375C25.4733 18.5981 25.9988 17.3261 25.9988 16C25.9988 14.674 25.4733 13.402 24.5375 12.4625C24.35 12.2755 24.096 12.1705 23.8312 12.1705C23.5665 12.1705 23.3125 12.2755 23.125 12.4625Z" fill="#1EB840"/>
</g>
</svg>
